STARTFONT 2.1
FONT -Monotype-Times New Roman-Regular-I-Normal--18-180-75-75-P-99-iso8859-5
SIZE 18 75 75
FONTBOUNDINGBOX 24 21 -3 -5

STARTPROPERTIES 24
FOUNDRY "Monotype"
FAMILY_NAME "Times New Roman"
WEIGHT_NAME "Regular"
SLANT "I"
SETWIDTH_NAME "Normal"
ADD_STYLE_NAME ""
PIXEL_SIZE 18
POINT_SIZE 180
RESOLUTION_X 75
RESOLUTION_Y 75
SPACING "P"
AVERAGE_WIDTH 99
CHARSET_REGISTRY "iso8859"
CHARSET_ENCODING "5"
FACE_NAME "Times New Roman Inclined ISO Latin Cyrillic"
_DEC_DEVICE_FONTNAMES "PS=timesnewroman-in-latcyrillic"
COPYRIGHT "Copyright (c) 1994 Monotype Typography Ltd."
CAP_HEIGHT 14
X_HEIGHT 10
WEIGHT 10
QUAD_WIDTH 13
DEFAULT_CHAR 160
FONT_DESCENT 5
FONT_ASCENT 17
ENDPROPERTIES

CHARS 191

STARTCHAR space
ENCODING 32
SWIDTH 250 0
DWIDTH 5 0
BBX 0 0 0 0
BITMAP
ENDCHAR

STARTCHAR exclam
ENCODING 33
SWIDTH 271 0
DWIDTH 5 0
BBX 5 13 0 0
BITMAP
08
18
18
18
30
30
20
20
40
40
00
C0
C0
ENDCHAR

STARTCHAR quotedbl
ENCODING 34
SWIDTH 417 0
DWIDTH 8 0
BBX 5 5 2 8
BITMAP
D8
D8
D8
48
48
ENDCHAR

STARTCHAR numbersign
ENCODING 35
SWIDTH 667 0
DWIDTH 13 0
BBX 11 14 1 -2
BITMAP
0840
0840
1080
1080
FFE0
1080
1080
2100
2100
FFE0
2100
2100
4200
4200
ENDCHAR

STARTCHAR dollar
ENCODING 36
SWIDTH 500 0
DWIDTH 10 0
BBX 8 15 1 -1
BITMAP
02
0F
15
35
34
34
18
0C
16
16
16
A6
A4
F8
20
ENDCHAR

STARTCHAR percent
ENCODING 37
SWIDTH 823 0
DWIDTH 16 0
BBX 14 13 1 0
BITMAP
3004
5808
5810
D820
D040
D080
6118
022C
0C2C
106C
2068
4068
8030
ENDCHAR

STARTCHAR ampersand
ENCODING 38
SWIDTH 719 0
DWIDTH 14 0
BBX 12 13 1 0
BITMAP
0180
0240
0640
0680
0700
0E00
3670
6320
C320
C340
C180
E390
7CE0
ENDCHAR

STARTCHAR quoteright
ENCODING 39
SWIDTH 271 0
DWIDTH 5 0
BBX 2 4 3 9
BITMAP
40
C0
40
80
ENDCHAR

STARTCHAR parenleft
ENCODING 40
SWIDTH 500 0
DWIDTH 10 0
BBX 7 18 2 -4
BITMAP
02
04
08
10
30
30
60
60
60
C0
C0
C0
C0
C0
C0
40
40
20
ENDCHAR

STARTCHAR parenright
ENCODING 41
SWIDTH 500 0
DWIDTH 10 0
BBX 7 18 0 -4
BITMAP
08
04
04
06
06
06
06
06
06
0C
0C
0C
18
18
10
20
40
80
ENDCHAR

STARTCHAR asterisk
ENCODING 42
SWIDTH 500 0
DWIDTH 10 0
BBX 6 7 3 6
BITMAP
30
B4
FC
30
FC
B4
30
ENDCHAR

STARTCHAR plus
ENCODING 43
SWIDTH 667 0
DWIDTH 13 0
BBX 9 9 2 0
BITMAP
0800
0800
0800
0800
FF80
0800
0800
0800
0800
ENDCHAR

STARTCHAR comma
ENCODING 44
SWIDTH 266 0
DWIDTH 5 0
BBX 2 4 1 -2
BITMAP
40
C0
40
80
ENDCHAR

STARTCHAR minus
ENCODING 45
SWIDTH 667 0
DWIDTH 13 0
BBX 10 1 1 4
BITMAP
FFC0
ENDCHAR

STARTCHAR period
ENCODING 46
SWIDTH 271 0
DWIDTH 5 0
BBX 2 2 0 0
BITMAP
C0
C0
ENDCHAR

STARTCHAR slash
ENCODING 47
SWIDTH 281 0
DWIDTH 5 0
BBX 8 14 -1 0
BITMAP
01
02
02
04
04
08
08
10
10
20
20
40
40
80
ENDCHAR

STARTCHAR zero
ENCODING 48
SWIDTH 500 0
DWIDTH 10 0
BBX 8 13 1 0
BITMAP
0E
13
23
63
63
C3
C3
C3
C6
C6
C4
C8
70
ENDCHAR

STARTCHAR one
ENCODING 49
SWIDTH 500 0
DWIDTH 10 0
BBX 5 13 2 0
BITMAP
08
38
18
18
30
30
30
30
30
60
60
60
F0
ENDCHAR

STARTCHAR two
ENCODING 50
SWIDTH 500 0
DWIDTH 10 0
BBX 9 13 0 0
BITMAP
0F00
1F80
2380
0180
0180
0300
0200
0400
0800
1000
2100
7E00
FC00
ENDCHAR

STARTCHAR three
ENCODING 51
SWIDTH 500 0
DWIDTH 10 0
BBX 9 13 0 0
BITMAP
0700
1980
0180
0180
0300
1C00
0600
0300
0300
0300
0200
C400
F800
ENDCHAR

STARTCHAR four
ENCODING 52
SWIDTH 500 0
DWIDTH 10 0
BBX 8 13 1 0
BITMAP
01
01
03
07
0B
16
26
46
FF
FF
0C
0C
0C
ENDCHAR

STARTCHAR five
ENCODING 53
SWIDTH 500 0
DWIDTH 10 0
BBX 9 13 1 0
BITMAP
0F80
1F00
1000
3800
3C00
0E00
0600
0600
0600
0600
0400
C800
F000
ENDCHAR

STARTCHAR six
ENCODING 54
SWIDTH 500 0
DWIDTH 10 0
BBX 8 13 1 0
BITMAP
07
08
10
30
6C
72
63
C3
C3
C6
C6
44
38
ENDCHAR

STARTCHAR seven
ENCODING 55
SWIDTH 500 0
DWIDTH 10 0
BBX 9 13 1 0
BITMAP
3F80
7F00
8200
0200
0400
0400
0800
0800
1000
2000
2000
4000
4000
ENDCHAR

STARTCHAR eight
ENCODING 56
SWIDTH 500 0
DWIDTH 10 0
BBX 8 13 1 0
BITMAP
0E
13
33
33
32
1C
2C
46
C6
C6
C6
44
38
ENDCHAR

STARTCHAR nine
ENCODING 57
SWIDTH 500 0
DWIDTH 10 0
BBX 8 13 1 0
BITMAP
1C
22
63
63
C3
C3
C6
4E
36
0C
08
10
E0
ENDCHAR

STARTCHAR colon
ENCODING 58
SWIDTH 333 0
DWIDTH 6 0
BBX 4 9 1 0
BITMAP
30
30
00
00
00
00
00
C0
C0
ENDCHAR

STARTCHAR semicolon
ENCODING 59
SWIDTH 333 0
DWIDTH 6 0
BBX 5 11 0 -2
BITMAP
18
18
00
00
00
00
00
60
60
20
C0
ENDCHAR

STARTCHAR less
ENCODING 60
SWIDTH 667 0
DWIDTH 13 0
BBX 10 10 2 0
BITMAP
00C0
0300
0C00
3000
C000
C000
3000
0C00
0300
00C0
ENDCHAR

STARTCHAR equal
ENCODING 61
SWIDTH 667 0
DWIDTH 13 0
BBX 10 5 2 3
BITMAP
FFC0
0000
0000
0000
FFC0
ENDCHAR

STARTCHAR greater
ENCODING 62
SWIDTH 667 0
DWIDTH 13 0
BBX 10 10 2 0
BITMAP
C000
3000
0C00
0300
00C0
00C0
0300
0C00
3000
C000
ENDCHAR

STARTCHAR question
ENCODING 63
SWIDTH 385 0
DWIDTH 7 0
BBX 7 14 1 0
BITMAP
18
24
66
06
04
0C
10
20
20
40
40
00
C0
C0
ENDCHAR

STARTCHAR at
ENCODING 64
SWIDTH 917 0
DWIDTH 17 0
BBX 17 18 1 -5
BITMAP
03F000
0C0C00
100200
200100
40D100
413100
C23100
862100
842100
8C6200
8CC200
8D4C00
467180
400100
200200
100400
0C3800
03C000
ENDCHAR

STARTCHAR A
ENCODING 65
SWIDTH 719 0
DWIDTH 14 0
BBX 13 13 0 0
BITMAP
0020
0060
00E0
0160
0260
0260
0460
0860
1FE0
2060
2060
4060
E0F0
ENDCHAR

STARTCHAR B
ENCODING 66
SWIDTH 667 0
DWIDTH 13 0
BBX 12 13 0 0
BITMAP
3FC0
1860
1830
1830
3030
3060
3F80
30C0
3060
6060
6060
60C0
FF00
ENDCHAR

STARTCHAR C
ENCODING 67
SWIDTH 719 0
DWIDTH 14 0
BBX 13 13 1 0
BITMAP
03C8
0C30
1810
3010
6000
6000
C000
C000
C000
C000
C040
6080
3F00
ENDCHAR

STARTCHAR D
ENCODING 68
SWIDTH 771 0
DWIDTH 15 0
BBX 13 13 1 0
BITMAP
3FE0
1830
1818
1818
3018
3018
3018
3030
3030
6060
60C0
6180
FE00
ENDCHAR

STARTCHAR E
ENCODING 69
SWIDTH 667 0
DWIDTH 13 0
BBX 13 13 0 0
BITMAP
1FF8
0C10
0C10
0C00
1840
1840
1F80
1880
1880
3020
3020
3040
FFC0
ENDCHAR

STARTCHAR F
ENCODING 70
SWIDTH 604 0
DWIDTH 11 0
BBX 11 13 1 0
BITMAP
3FE0
1840
1840
1800
3100
3100
3E00
3200
3200
6000
6000
6000
F000
ENDCHAR

STARTCHAR G
ENCODING 71
SWIDTH 719 0
DWIDTH 14 0
BBX 13 13 1 0
BITMAP
03C8
0C30
1810
3010
6000
6000
C000
C0F0
C060
C060
C060
60C0
3F80
ENDCHAR

STARTCHAR H
ENCODING 72
SWIDTH 823 0
DWIDTH 16 0
BBX 14 13 1 0
BITMAP
3C3C
1818
1818
1818
3030
3030
3FF0
3030
3030
6060
6060
6060
F0F0
ENDCHAR

STARTCHAR I
ENCODING 73
SWIDTH 385 0
DWIDTH 7 0
BBX 6 13 0 0
BITMAP
3C
18
18
18
30
30
30
30
30
60
60
60
F0
ENDCHAR

STARTCHAR J
ENCODING 74
SWIDTH 500 0
DWIDTH 10 0
BBX 9 13 0 0
BITMAP
0780
0300
0300
0300
0600
0600
0600
0600
0600
0C00
4C00
C800
7000
ENDCHAR

STARTCHAR K
ENCODING 75
SWIDTH 719 0
DWIDTH 14 0
BBX 12 13 1 0
BITMAP
3C70
1840
1880
1900
3200
3400
3C00
3600
3300
6300
6180
60C0
F1F0
ENDCHAR

STARTCHAR L
ENCODING 76
SWIDTH 667 0
DWIDTH 13 0
BBX 11 13 1 0
BITMAP
3C00
1800
1800
1800
3000
3000
3000
3000
3000
6020
6020
6040
FFC0
ENDCHAR

STARTCHAR M
ENCODING 77
SWIDTH 990 0
DWIDTH 19 0
BBX 17 13 1 0
BITMAP
380380
180700
1C0700
1C0B00
2C1600
261600
262600
262600
264600
468C00
430C00
430C00
E21E00
ENDCHAR

STARTCHAR N
ENCODING 78
SWIDTH 771 0
DWIDTH 15 0
BBX 13 13 1 0
BITMAP
3838
1C10
1C10
1610
2620
2320
2320
21A0
21A0
40C0
40C0
4040
E040
ENDCHAR

STARTCHAR O
ENCODING 79
SWIDTH 771 0
DWIDTH 15 0
BBX 13 13 1 0
BITMAP
03E0
0C30
1818
3018
6018
6018
C018
C030
C030
C060
C0C0
6180
3E00
ENDCHAR

STARTCHAR P
ENCODING 80
SWIDTH 667 0
DWIDTH 13 0
BBX 11 13 1 0
BITMAP
3F80
18C0
1860
1860
3060
30C0
3F00
3000
3000
6000
6000
6000
F000
ENDCHAR

STARTCHAR Q
ENCODING 81
SWIDTH 771 0
DWIDTH 15 0
BBX 14 17 0 -4
BITMAP
01F0
0618
0C0C
180C
300C
300C
600C
6018
6018
6030
6060
30C0
1F00
0800
1000
7F90
87E0
ENDCHAR

STARTCHAR R
ENCODING 82
SWIDTH 719 0
DWIDTH 14 0
BBX 12 13 1 0
BITMAP
3F80
18C0
1860
1860
3060
30C0
3F00
3300
3180
6180
60C0
60C0
F0F0
ENDCHAR

STARTCHAR S
ENCODING 83
SWIDTH 604 0
DWIDTH 11 0
BBX 12 13 -1 0
BITMAP
0790
0C60
1820
1820
1C00
0E00
0700
0380
01C0
40C0
40C0
6180
9F00
ENDCHAR

STARTCHAR T
ENCODING 84
SWIDTH 667 0
DWIDTH 13 0
BBX 12 13 1 0
BITMAP
7FF0
4610
8610
0600
0C00
0C00
0C00
0C00
0C00
1800
1800
1800
3C00
ENDCHAR

STARTCHAR U
ENCODING 85
SWIDTH 771 0
DWIDTH 15 0
BBX 13 13 2 0
BITMAP
7838
3010
3010
3010
6020
6020
6020
6020
C040
C040
C080
6100
3E00
ENDCHAR

STARTCHAR V
ENCODING 86
SWIDTH 719 0
DWIDTH 14 0
BBX 13 13 2 0
BITMAP
F038
6010
6020
6040
6080
6100
6200
6200
6400
6800
7000
6000
4000
ENDCHAR

STARTCHAR W
ENCODING 87
SWIDTH 990 0
DWIDTH 19 0
BBX 18 13 2 0
BITMAP
F3C1C0
618080
618100
618200
618400
618400
638800
659000
69A000
71C000
618000
618000
410000
ENDCHAR

STARTCHAR X
ENCODING 88
SWIDTH 719 0
DWIDTH 14 0
BBX 16 13 -1 0
BITMAP
078F
0304
0308
0310
01A0
01C0
0180
0380
0580
08C0
10C0
20C0
F1F0
ENDCHAR

STARTCHAR Y
ENCODING 89
SWIDTH 719 0
DWIDTH 14 0
BBX 12 13 3 0
BITMAP
F0F0
6040
6080
3100
3200
3400
1800
1800
1800
3000
3000
3000
7800
ENDCHAR

STARTCHAR Z
ENCODING 90
SWIDTH 719 0
DWIDTH 14 0
BBX 14 13 0 0
BITMAP
0FFC
0818
1030
0060
00C0
0180
0300
0600
0C00
1800
3010
6020
FFE0
ENDCHAR

STARTCHAR bracketleft
ENCODING 91
SWIDTH 500 0
DWIDTH 10 0
BBX 7 17 1 -4
BITMAP
1E
18
18
18
30
30
30
30
30
60
60
60
60
C0
C0
C0
F0
ENDCHAR

STARTCHAR backslash
ENCODING 92
SWIDTH 281 0
DWIDTH 5 0
BBX 8 14 -1 0
BITMAP
80
40
40
20
20
10
10
08
08
04
04
02
02
01
ENDCHAR

STARTCHAR bracketright
ENCODING 93
SWIDTH 500 0
DWIDTH 10 0
BBX 7 17 1 -4
BITMAP
1E
06
06
06
0C
0C
0C
0C
0C
18
18
18
18
30
30
30
F0
ENDCHAR

STARTCHAR asciicircum
ENCODING 94
SWIDTH 583 0
DWIDTH 8 0
BBX 7 6 1 7
BITMAP
10
28
44
44
82
82
ENDCHAR

STARTCHAR underscore
ENCODING 95
SWIDTH 500 0
DWIDTH 10 0
BBX 10 1 0 -2
BITMAP
FFC0
ENDCHAR

STARTCHAR quoteleft
ENCODING 96
SWIDTH 271 0
DWIDTH 5 0
BBX 2 4 2 9
BITMAP
40
80
C0
80
ENDCHAR

STARTCHAR a
ENCODING 97
SWIDTH 500 0
DWIDTH 10 0
BBX 9 9 1 0
BITMAP
0E80
1300
2300
6300
C300
C600
CE00
D680
6700
ENDCHAR

STARTCHAR b
ENCODING 98
SWIDTH 500 0
DWIDTH 10 0
BBX 8 14 1 0
BITMAP
10
70
30
30
30
66
6B
73
63
63
C6
C6
CC
78
ENDCHAR

STARTCHAR c
ENCODING 99
SWIDTH 438 0
DWIDTH 8 0
BBX 7 9 1 0
BITMAP
0C
16
26
60
C0
C0
C0
CC
70
ENDCHAR

STARTCHAR d
ENCODING 100
SWIDTH 500 0
DWIDTH 10 0
BBX 9 14 1 0
BITMAP
0080
0380
0180
0180
0180
0F00
1300
2300
6300
C300
C600
CE00
D680
6700
ENDCHAR

STARTCHAR e
ENCODING 101
SWIDTH 438 0
DWIDTH 8 0
BBX 7 9 1 0
BITMAP
0C
16
26
64
78
C0
C0
C8
70
ENDCHAR

STARTCHAR f
ENCODING 102
SWIDTH 333 0
DWIDTH 6 0
BBX 12 18 -3 -4
BITMAP
0070
00B0
0100
0300
0300
0F80
0600
0600
0600
0600
0C00
0C00
0C00
0C00
0C00
0800
D000
E000
ENDCHAR

STARTCHAR g
ENCODING 103
SWIDTH 500 0
DWIDTH 10 0
BBX 10 13 0 -4
BITMAP
0600
09C0
1180
3180
3100
3200
1C00
2000
3E00
7F00
8300
8600
7800
ENDCHAR

STARTCHAR h
ENCODING 104
SWIDTH 500 0
DWIDTH 10 0
BBX 9 14 1 0
BITMAP
1000
7000
3000
3000
3000
6600
6B00
7300
6300
6300
C600
C600
C680
C700
ENDCHAR

STARTCHAR i
ENCODING 105
SWIDTH 271 0
DWIDTH 5 0
BBX 4 13 1 0
BITMAP
30
30
00
00
E0
60
60
60
60
C0
C0
D0
E0
ENDCHAR

STARTCHAR j
ENCODING 106
SWIDTH 271 0
DWIDTH 5 0
BBX 8 17 -3 -4
BITMAP
03
03
00
00
0E
06
06
06
06
0C
0C
0C
0C
0C
18
D0
E0
ENDCHAR

STARTCHAR k
ENCODING 107
SWIDTH 531 0
DWIDTH 10 0
BBX 9 14 1 0
BITMAP
1000
7000
3000
3000
3000
6700
6200
6400
6800
7800
CC00
CC00
C680
C300
ENDCHAR

STARTCHAR l
ENCODING 108
SWIDTH 271 0
DWIDTH 5 0
BBX 4 14 1 0
BITMAP
10
70
30
30
30
60
60
60
60
60
C0
C0
D0
E0
ENDCHAR

STARTCHAR m
ENCODING 109
SWIDTH 771 0
DWIDTH 15 0
BBX 14 9 1 0
BITMAP
E630
6B58
7398
6318
6318
C630
C630
C634
C638
ENDCHAR

STARTCHAR n
ENCODING 110
SWIDTH 500 0
DWIDTH 10 0
BBX 9 9 1 0
BITMAP
E600
6B00
7300
6300
6300
C600
C600
C680
C700
ENDCHAR

STARTCHAR o
ENCODING 111
SWIDTH 500 0
DWIDTH 10 0
BBX 8 9 1 0
BITMAP
1E
23
63
C3
C3
C3
C6
C4
78
ENDCHAR

STARTCHAR p
ENCODING 112
SWIDTH 500 0
DWIDTH 10 0
BBX 10 13 -1 -4
BITMAP
3B80
1CC0
18C0
18C0
18C0
30C0
3080
3100
3E00
6000
6000
6000
F000
ENDCHAR

STARTCHAR q
ENCODING 113
SWIDTH 500 0
DWIDTH 10 0
BBX 8 13 1 -4
BITMAP
0D
13
23
63
C3
C6
C6
CE
76
0C
0C
0C
1E
ENDCHAR

STARTCHAR r
ENCODING 114
SWIDTH 385 0
DWIDTH 7 0
BBX 6 9 1 0
BITMAP
EC
74
60
60
60
C0
C0
C0
C0
ENDCHAR

STARTCHAR s
ENCODING 115
SWIDTH 385 0
DWIDTH 7 0
BBX 7 9 0 0
BITMAP
3A
64
64
70
38
1C
4C
4C
B8
ENDCHAR

STARTCHAR t
ENCODING 116
SWIDTH 333 0
DWIDTH 6 0
BBX 4 12 1 0
BITMAP
10
20
60
F0
60
60
60
60
C0
C0
D0
E0
ENDCHAR

STARTCHAR u
ENCODING 117
SWIDTH 500 0
DWIDTH 10 0
BBX 10 9 0 0
BITMAP
7180
B180
3180
3180
3180
6300
6300
6740
3B80
ENDCHAR

STARTCHAR v
ENCODING 118
SWIDTH 438 0
DWIDTH 8 0
BBX 7 9 1 0
BITMAP
26
E6
62
62
64
68
70
60
40
ENDCHAR

STARTCHAR w
ENCODING 119
SWIDTH 667 0
DWIDTH 13 0
BBX 11 9 1 0
BITMAP
2260
E660
6620
6640
6640
6E80
7700
6600
4400
ENDCHAR

STARTCHAR x
ENCODING 120
SWIDTH 552 0
DWIDTH 10 0
BBX 11 9 -1 0
BITMAP
1C60
0CA0
0D00
0600
0600
0B00
1340
A180
C180
ENDCHAR

STARTCHAR y
ENCODING 121
SWIDTH 500 0
DWIDTH 10 0
BBX 10 13 -1 -4
BITMAP
08C0
38C0
1840
1840
1880
0C80
0D00
0E00
0C00
0800
1000
E000
C000
ENDCHAR

STARTCHAR z
ENCODING 122
SWIDTH 438 0
DWIDTH 8 0
BBX 8 9 0 0
BITMAP
1F
1E
24
08
08
10
22
7C
FC
ENDCHAR

STARTCHAR braceleft
ENCODING 123
SWIDTH 479 0
DWIDTH 9 0
BBX 5 16 2 -3
BITMAP
18
30
30
30
30
30
20
C0
40
20
30
30
30
30
30
18
ENDCHAR

STARTCHAR bar
ENCODING 124
SWIDTH 271 0
DWIDTH 5 0
BBX 1 16 2 -2
BITMAP
80
80
80
80
80
80
80
80
80
80
80
80
80
80
80
80
ENDCHAR

STARTCHAR braceright
ENCODING 125
SWIDTH 479 0
DWIDTH 9 0
BBX 5 15 2 -2
BITMAP
C0
60
60
60
60
20
10
18
20
60
60
60
60
60
C0
ENDCHAR

STARTCHAR asciitilde
ENCODING 126
SWIDTH 667 0
DWIDTH 10 0
BBX 10 3 0 4
BITMAP
3840
7F80
8700
ENDCHAR

STARTCHAR space
ENCODING 160
SWIDTH 250 0
DWIDTH 6 0
BBX 0 0 0 0
BITMAP
ENDCHAR

STARTCHAR afii10023
ENCODING 161
SWIDTH 667 0
DWIDTH 13 0
BBX 13 15 0 0
BITMAP
0120
0000
1FF8
0C10
0C10
0C00
1840
1840
1F80
1880
1880
3020
3020
3040
FFC0
ENDCHAR

STARTCHAR afii10051
ENCODING 162
SWIDTH 809 0
DWIDTH 15 0
BBX 14 13 0 0
BITMAP
7FF0
4610
8610
0600
0CF8
0D0C
0E0C
0C0C
0C0C
1818
1818
1830
3CC0
ENDCHAR

STARTCHAR afii10052
ENCODING 163
SWIDTH 631 0
DWIDTH 12 0
BBX 11 16 1 0
BITMAP
0080
0100
0000
3FE0
1820
1820
1800
3000
3000
3000
3000
3000
6000
6000
6000
F000
ENDCHAR

STARTCHAR afii10053
ENCODING 164
SWIDTH 719 0
DWIDTH 14 0
BBX 13 13 1 0
BITMAP
03C8
0C30
1810
3010
6000
C000
FE00
C000
C000
C000
6020
30C0
1F00
ENDCHAR

STARTCHAR afii10054
ENCODING 165
SWIDTH 604 0
DWIDTH 11 0
BBX 12 13 -1 0
BITMAP
0790
0C60
1820
1820
1C00
0E00
0700
0380
01C0
40C0
40C0
6180
9F00
ENDCHAR

STARTCHAR afii10055
ENCODING 166
SWIDTH 385 0
DWIDTH 7 0
BBX 6 13 0 0
BITMAP
3C
18
18
18
30
30
30
30
30
60
60
60
F0
ENDCHAR

STARTCHAR afii10056
ENCODING 167
SWIDTH 385 0
DWIDTH 7 0
BBX 7 15 0 0
BITMAP
12
00
3C
18
18
18
30
30
30
30
30
60
60
60
F0
ENDCHAR

STARTCHAR afii10057
ENCODING 168
SWIDTH 500 0
DWIDTH 10 0
BBX 9 13 0 0
BITMAP
0780
0300
0300
0300
0600
0600
0600
0600
0600
0C00
4C00
C800
7000
ENDCHAR

STARTCHAR afii10058
ENCODING 169
SWIDTH 957 0
DWIDTH 18 0
BBX 17 13 0 0
BITMAP
07F800
023000
023000
023000
046000
046000
047F00
046180
046180
08C180
48C180
D0C300
61FC00
ENDCHAR

STARTCHAR afii10059
ENCODING 170
SWIDTH 984 0
DWIDTH 19 0
BBX 17 13 1 0
BITMAP
3C7800
183000
183000
183000
306000
306000
3FFF00
306180
306180
60C180
60C180
60C300
F1FE00
ENDCHAR

STARTCHAR afii10060
ENCODING 171
SWIDTH 811 0
DWIDTH 15 0
BBX 13 13 1 0
BITMAP
7FE0
4620
8620
0600
0CF0
0F18
0C18
0C18
0C18
1830
1830
1830
3C78
ENDCHAR

STARTCHAR afii10061
ENCODING 172
SWIDTH 713 0
DWIDTH 14 0
BBX 12 16 1 0
BITMAP
0040
0080
0000
3C70
1890
1880
1900
3100
3200
3C00
3600
3300
6300
6180
60C0
F1F0
ENDCHAR

STARTCHAR hyphen
ENCODING 173
SWIDTH 333 0
DWIDTH 6 0
BBX 5 1 1 4
BITMAP
F8
ENDCHAR

STARTCHAR afii10062
ENCODING 174
SWIDTH 688 0
DWIDTH 13 0
BBX 13 16 1 0
BITMAP
0440
0380
0000
7838
3010
3020
1820
1840
1880
1880
0D00
0E00
0C00
0400
C800
7000
ENDCHAR

STARTCHAR afii10145
ENCODING 175
SWIDTH 804 0
DWIDTH 15 0
BBX 13 16 1 -3
BITMAP
3C78
1830
1830
1830
3060
3060
3060
3060
3060
60C0
60C0
60C0
FFE0
0E00
0400
0400
ENDCHAR

STARTCHAR afii10017
ENCODING 176
SWIDTH 719 0
DWIDTH 14 0
BBX 13 13 0 0
BITMAP
0020
0060
00E0
0160
0260
0260
0460
0860
1FE0
2060
2060
4060
E0F0
ENDCHAR

STARTCHAR afii10018
ENCODING 177
SWIDTH 655 0
DWIDTH 12 0
BBX 11 13 1 0
BITMAP
3FE0
1820
1820
1800
3000
3000
3F80
30C0
30C0
60C0
60C0
6180
FE00
ENDCHAR

STARTCHAR afii10019
ENCODING 178
SWIDTH 667 0
DWIDTH 13 0
BBX 12 13 0 0
BITMAP
3FC0
1860
1830
1830
3030
3060
3F80
30C0
3060
6060
6060
60C0
FF00
ENDCHAR

STARTCHAR afii10020
ENCODING 179
SWIDTH 631 0
DWIDTH 12 0
BBX 11 13 1 0
BITMAP
3FE0
1820
1820
1800
3000
3000
3000
3000
3000
6000
6000
6000
F000
ENDCHAR

STARTCHAR afii10021
ENCODING 180
SWIDTH 675 0
DWIDTH 13 0
BBX 14 16 -2 -3
BITMAP
03FC
0118
0118
0118
0230
0230
0230
0430
0430
0860
0860
1060
7FF8
4030
4010
8010
ENDCHAR

STARTCHAR afii10022
ENCODING 181
SWIDTH 667 0
DWIDTH 13 0
BBX 13 13 0 0
BITMAP
1FF8
0C10
0C10
0C00
1840
1840
1F80
1880
1880
3020
3020
3040
FFC0
ENDCHAR

STARTCHAR afii10024
ENCODING 182
SWIDTH 947 0
DWIDTH 18 0
BBX 19 13 -1 0
BITMAP
1C78E0
1A3160
023100
023100
026200
026400
01F800
066C00
0C6600
18C600
18C300
30C300
E3E1C0
ENDCHAR

STARTCHAR afii10025
ENCODING 183
SWIDTH 527 0
DWIDTH 10 0
BBX 9 13 0 0
BITMAP
2F00
3180
2180
0180
0300
0600
1E00
0300
0300
0300
0700
8E00
7800
ENDCHAR

STARTCHAR afii10026
ENCODING 184
SWIDTH 805 0
DWIDTH 15 0
BBX 13 13 1 0
BITMAP
3C78
1830
1870
18B0
3160
3160
3260
3460
3460
68C0
70C0
60C0
F1E0
ENDCHAR

STARTCHAR afii10027
ENCODING 185
SWIDTH 805 0
DWIDTH 15 0
BBX 13 16 1 0
BITMAP
0220
01C0
0000
3C78
1830
1870
18B0
3160
3160
3260
3460
3460
68C0
70C0
60C0
F1E0
ENDCHAR

STARTCHAR afii10028
ENCODING 186
SWIDTH 713 0
DWIDTH 14 0
BBX 12 13 1 0
BITMAP
3C70
1890
1880
1900
3100
3200
3C00
3600
3300
6300
6180
60C0
F1F0
ENDCHAR

STARTCHAR afii10029
ENCODING 187
SWIDTH 715 0
DWIDTH 14 0
BBX 13 13 0 0
BITMAP
07F8
0230
0230
0230
0460
0460
0460
0460
0460
08C0
88C0
D0C0
61E0
ENDCHAR

STARTCHAR afii10030
ENCODING 188
SWIDTH 990 0
DWIDTH 19 0
BBX 17 13 1 0
BITMAP
380380
180700
1C0700
1C0B00
2C1600
261600
262600
262600
264600
468C00
430C00
430C00
E21E00
ENDCHAR

STARTCHAR afii10031
ENCODING 189
SWIDTH 823 0
DWIDTH 16 0
BBX 14 13 1 0
BITMAP
3C3C
1818
1818
1818
3030
3030
3FF0
3030
3030
6060
6060
6060
F0F0
ENDCHAR

STARTCHAR afii10032
ENCODING 190
SWIDTH 771 0
DWIDTH 15 0
BBX 13 13 1 0
BITMAP
03E0
0C30
1818
3018
6018
6018
C018
C030
C030
C060
C0C0
6180
3E00
ENDCHAR

STARTCHAR afii10033
ENCODING 191
SWIDTH 805 0
DWIDTH 15 0
BBX 13 13 1 0
BITMAP
3FF8
1830
1830
1830
3060
3060
3060
3060
3060
60C0
60C0
60C0
F1E0
ENDCHAR

STARTCHAR afii10034
ENCODING 192
SWIDTH 667 0
DWIDTH 13 0
BBX 11 13 1 0
BITMAP
3F80
18C0
1860
1860
3060
30C0
3F00
3000
3000
6000
6000
6000
F000
ENDCHAR

STARTCHAR afii10035
ENCODING 193
SWIDTH 719 0
DWIDTH 14 0
BBX 13 13 1 0
BITMAP
03C8
0C30
1810
3010
6000
6000
C000
C000
C000
C000
C040
6080
3F00
ENDCHAR

STARTCHAR afii10036
ENCODING 194
SWIDTH 667 0
DWIDTH 13 0
BBX 12 13 1 0
BITMAP
7FF0
4610
8610
0600
0C00
0C00
0C00
0C00
0C00
1800
1800
1800
3C00
ENDCHAR

STARTCHAR afii10037
ENCODING 195
SWIDTH 688 0
DWIDTH 13 0
BBX 13 13 1 0
BITMAP
7838
3010
3020
1820
1840
1880
1880
0D00
0E00
0C00
0400
C800
7000
ENDCHAR

STARTCHAR afii10038
ENCODING 196
SWIDTH 796 0
DWIDTH 15 0
BBX 12 13 1 0
BITMAP
0780
0300
0300
3FE0
6630
C630
C630
C630
C660
7FC0
0C00
0C00
1E00
ENDCHAR

STARTCHAR afii10039
ENCODING 197
SWIDTH 719 0
DWIDTH 14 0
BBX 16 13 -1 0
BITMAP
078F
0304
0308
0310
01A0
01C0
0180
0380
0580
08C0
10C0
20C0
F1F0
ENDCHAR

STARTCHAR afii10040
ENCODING 198
SWIDTH 804 0
DWIDTH 15 0
BBX 13 16 1 -3
BITMAP
3C78
1830
1830
1830
3060
3060
3060
3060
3060
60C0
60C0
60C0
FFE0
0060
0040
0040
ENDCHAR

STARTCHAR afii10041
ENCODING 199
SWIDTH 727 0
DWIDTH 14 0
BBX 11 13 2 0
BITMAP
F1E0
60C0
60C0
60C0
C180
C180
C380
7D80
0180
0300
0300
0300
0780
ENDCHAR

STARTCHAR afii10042
ENCODING 200
SWIDTH 1126 0
DWIDTH 21 0
BBX 20 13 1 0
BITMAP
3C78F0
183060
183060
183060
3060C0
3060C0
3060C0
3060C0
3060C0
60C180
60C180
60C180
FFFFC0
ENDCHAR

STARTCHAR afii10043
ENCODING 201
SWIDTH 1126 0
DWIDTH 21 0
BBX 20 16 1 -3
BITMAP
3C78F0
183060
183060
183060
3060C0
3060C0
3060C0
3060C0
3060C0
60C180
60C180
60C180
FFFFC0
0000C0
000080
000080
ENDCHAR

STARTCHAR afii10044
ENCODING 202
SWIDTH 730 0
DWIDTH 14 0
BBX 11 13 2 0
BITMAP
7E00
4C00
8C00
0C00
1800
1F80
18C0
1860
1860
3060
3060
30C0
7F00
ENDCHAR

STARTCHAR afii10045
ENCODING 203
SWIDTH 964 0
DWIDTH 18 0
BBX 16 13 1 0
BITMAP
3C0F
1806
1806
1806
300C
300C
3F8C
30CC
30CC
60D8
60D8
6198
FE3C
ENDCHAR

STARTCHAR afii10046
ENCODING 204
SWIDTH 655 0
DWIDTH 12 0
BBX 10 13 1 0
BITMAP
3C00
1800
1800
3000
3000
3000
3F80
30C0
30C0
60C0
60C0
6180
FE00
ENDCHAR

STARTCHAR afii10047
ENCODING 205
SWIDTH 704 0
DWIDTH 13 0
BBX 11 13 1 0
BITMAP
2F00
30C0
40C0
4060
0060
0060
0FE0
0060
00C0
00C0
8180
4300
3C00
ENDCHAR

STARTCHAR afii10048
ENCODING 206
SWIDTH 1106 0
DWIDTH 21 0
BBX 19 13 1 0
BITMAP
3C0780
1818C0
183060
186060
30C060
30C060
3F8060
3180C0
3180C0
618180
618300
60C600
F07800
ENDCHAR

STARTCHAR afii10049
ENCODING 207
SWIDTH 710 0
DWIDTH 13 0
BBX 13 13 -1 0
BITMAP
01F8
0630
0C30
0C30
0C60
0660
01E0
0660
0C60
18C0
30C0
60C0
F1E0
ENDCHAR

STARTCHAR afii10065
ENCODING 208
SWIDTH 500 0
DWIDTH 10 0
BBX 9 9 1 0
BITMAP
0E80
1300
2300
6300
C300
C600
CE00
D680
6700
ENDCHAR

STARTCHAR afii10066
ENCODING 209
SWIDTH 507 0
DWIDTH 10 0
BBX 9 14 1 0
BITMAP
0080
0F80
1F00
2000
2000
5E00
6300
E300
C300
C300
C300
C600
C400
7800
ENDCHAR

STARTCHAR afii10067
ENCODING 210
SWIDTH 438 0
DWIDTH 8 0
BBX 7 9 1 0
BITMAP
1C
26
66
CC
F8
CC
CC
C8
70
ENDCHAR

STARTCHAR afii10068
ENCODING 211
SWIDTH 406 0
DWIDTH 8 0
BBX 7 9 1 0
BITMAP
1C
26
06
0C
30
40
C0
CC
70
ENDCHAR

STARTCHAR afii10069
ENCODING 212
SWIDTH 501 0
DWIDTH 10 0
BBX 8 13 1 0
BITMAP
18
04
02
03
1F
23
63
C3
C3
C3
C6
C4
78
ENDCHAR

STARTCHAR afii10070
ENCODING 213
SWIDTH 438 0
DWIDTH 8 0
BBX 7 9 1 0
BITMAP
0C
16
26
64
78
C0
C0
C8
70
ENDCHAR

STARTCHAR afii10072
ENCODING 214
SWIDTH 997 0
DWIDTH 19 0
BBX 19 9 0 0
BITMAP
1C61C0
666260
066260
066400
07FC00
04CC00
C8CC00
C8CCC0
70C700
ENDCHAR

STARTCHAR afii10073
ENCODING 215
SWIDTH 404 0
DWIDTH 8 0
BBX 7 9 0 0
BITMAP
3C
46
46
18
0C
0C
0C
98
70
ENDCHAR

STARTCHAR afii10074
ENCODING 216
SWIDTH 500 0
DWIDTH 10 0
BBX 10 9 0 0
BITMAP
7180
B180
3180
3180
3180
6300
6300
6740
3B80
ENDCHAR

STARTCHAR afii10075
ENCODING 217
SWIDTH 500 0
DWIDTH 10 0
BBX 10 12 0 0
BITMAP
0D00
0E00
0000
7180
B180
3180
3180
3180
6300
6300
6740
3B80
ENDCHAR

STARTCHAR afii10076
ENCODING 218
SWIDTH 498 0
DWIDTH 10 0
BBX 9 9 1 0
BITMAP
2180
E280
6400
6800
7000
CC00
CC00
CD00
C600
ENDCHAR

STARTCHAR afii10077
ENCODING 219
SWIDTH 454 0
DWIDTH 9 0
BBX 9 9 0 0
BITMAP
3F80
1300
1300
1300
1300
2600
2600
A680
C700
ENDCHAR

STARTCHAR afii10078
ENCODING 220
SWIDTH 655 0
DWIDTH 12 0
BBX 13 9 -1 0
BITMAP
0430
1C70
0E70
0EB0
16B0
1760
1760
2268
C270
ENDCHAR

STARTCHAR afii10079
ENCODING 221
SWIDTH 505 0
DWIDTH 10 0
BBX 9 9 1 0
BITMAP
2300
E300
6300
6300
7F00
C600
C600
C680
C700
ENDCHAR

STARTCHAR afii10080
ENCODING 222
SWIDTH 500 0
DWIDTH 10 0
BBX 8 9 1 0
BITMAP
1E
23
63
C3
C3
C3
C6
C4
78
ENDCHAR

STARTCHAR afii10081
ENCODING 223
SWIDTH 500 0
DWIDTH 10 0
BBX 9 9 1 0
BITMAP
E600
6B00
7300
6300
6300
C600
C600
C680
C700
ENDCHAR

STARTCHAR afii10082
ENCODING 224
SWIDTH 500 0
DWIDTH 10 0
BBX 10 13 -1 -4
BITMAP
3B80
1CC0
18C0
18C0
18C0
30C0
3080
3100
3E00
6000
6000
6000
F000
ENDCHAR

STARTCHAR afii10083
ENCODING 225
SWIDTH 438 0
DWIDTH 8 0
BBX 7 9 1 0
BITMAP
0C
16
26
60
C0
C0
C0
CC
70
ENDCHAR

STARTCHAR afii10084
ENCODING 226
SWIDTH 771 0
DWIDTH 15 0
BBX 14 9 1 0
BITMAP
E630
6B58
7398
6318
6318
C630
C630
C634
C638
ENDCHAR

STARTCHAR afii10085
ENCODING 227
SWIDTH 500 0
DWIDTH 10 0
BBX 10 13 -1 -4
BITMAP
08C0
38C0
1840
1840
1880
0C80
0D00
0E00
0C00
0800
1000
E000
C000
ENDCHAR

STARTCHAR afii10086
ENCODING 228
SWIDTH 704 0
DWIDTH 13 0
BBX 11 18 1 -4
BITMAP
0100
0700
0300
0300
0300
1EC0
2760
6660
C660
CC60
CC60
CCC0
DC80
6F00
1800
1800
1800
3C00
ENDCHAR

STARTCHAR afii10087
ENCODING 229
SWIDTH 552 0
DWIDTH 10 0
BBX 11 9 -1 0
BITMAP
1C60
0CA0
0D00
0600
0600
0B00
1340
A180
C180
ENDCHAR

STARTCHAR afii10088
ENCODING 230
SWIDTH 500 0
DWIDTH 10 0
BBX 10 12 0 -3
BITMAP
7180
B180
3180
3180
3180
6300
6300
6740
3B80
0300
0180
0700
ENDCHAR

STARTCHAR afii10089
ENCODING 231
SWIDTH 471 0
DWIDTH 9 0
BBX 8 9 1 0
BITMAP
E6
66
66
CE
76
0C
0C
0D
0E
ENDCHAR

STARTCHAR afii10090
ENCODING 232
SWIDTH 756 0
DWIDTH 14 0
BBX 15 9 0 0
BITMAP
718C
B18C
318C
318C
6318
6318
6738
6B5A
319C
ENDCHAR

STARTCHAR afii10091
ENCODING 233
SWIDTH 756 0
DWIDTH 14 0
BBX 15 12 0 -3
BITMAP
718C
B18C
318C
318C
6318
6318
6738
6B5A
319C
0018
000C
0038
ENDCHAR

STARTCHAR afii10092
ENCODING 234
SWIDTH 509 0
DWIDTH 10 0
BBX 9 9 0 0
BITMAP
7800
9800
1800
1F00
3180
3180
3180
3300
1E00
ENDCHAR

STARTCHAR afii10093
ENCODING 235
SWIDTH 648 0
DWIDTH 12 0
BBX 11 9 1 0
BITMAP
2040
E1C0
60C0
78C0
6CC0
CD80
CD80
C9A0
71C0
ENDCHAR

STARTCHAR afii10094
ENCODING 236
SWIDTH 441 0
DWIDTH 8 0
BBX 6 9 1 0
BITMAP
20
E0
60
78
CC
CC
CC
C8
70
ENDCHAR

STARTCHAR afii10095
ENCODING 237
SWIDTH 437 0
DWIDTH 8 0
BBX 7 9 0 0
BITMAP
58
64
46
06
3E
0C
8C
98
70
ENDCHAR

STARTCHAR afii10096
ENCODING 238
SWIDTH 706 0
DWIDTH 13 0
BBX 11 9 1 0
BITMAP
23C0
E460
6C60
6C60
F860
D860
D8C0
D880
CF00
ENDCHAR

STARTCHAR afii10097
ENCODING 239
SWIDTH 474 0
DWIDTH 9 0
BBX 9 9 0 0
BITMAP
0F00
1300
3300
3300
0F00
1600
3600
6680
C700
ENDCHAR

STARTCHAR afii61352
ENCODING 240
SWIDTH 1043 0
DWIDTH 20 0
BBX 20 13 0 0
BITMAP
0F0700
030B00
030800
058860
0591B0
059330
08D330
08D330
08E360
10E180
104000
D04000
6047C0
ENDCHAR

STARTCHAR afii10071
ENCODING 241
SWIDTH 438 0
DWIDTH 8 0
BBX 7 11 1 0
BITMAP
12
00
0C
16
26
64
78
C0
C0
C8
70
ENDCHAR

STARTCHAR afii10099
ENCODING 242
SWIDTH 485 0
DWIDTH 10 0
BBX 8 18 1 -4
BITMAP
10
70
30
FE
30
66
6B
73
63
63
C6
C6
C6
C6
0C
08
10
20
ENDCHAR

STARTCHAR afii10100
ENCODING 243
SWIDTH 402 0
DWIDTH 8 0
BBX 8 12 0 0
BITMAP
02
04
00
7F
31
30
30
30
60
60
60
F0
ENDCHAR

STARTCHAR afii10101
ENCODING 244
SWIDTH 434 0
DWIDTH 8 0
BBX 7 9 1 0
BITMAP
0E
12
22
60
78
C0
C0
C4
78
ENDCHAR

STARTCHAR afii10102
ENCODING 245
SWIDTH 385 0
DWIDTH 7 0
BBX 7 9 0 0
BITMAP
3A
64
64
70
38
1C
4C
4C
B8
ENDCHAR

STARTCHAR afii10103
ENCODING 246
SWIDTH 271 0
DWIDTH 5 0
BBX 4 13 1 0
BITMAP
30
30
00
00
E0
60
60
60
60
C0
C0
D0
E0
ENDCHAR

STARTCHAR afii10104
ENCODING 247
SWIDTH 271 0
DWIDTH 5 0
BBX 5 12 1 0
BITMAP
48
00
00
E0
60
60
60
60
C0
C0
D0
E0
ENDCHAR

STARTCHAR afii10105
ENCODING 248
SWIDTH 271 0
DWIDTH 5 0
BBX 8 17 -3 -4
BITMAP
03
03
00
00
0E
06
06
06
06
0C
0C
0C
0C
0C
18
D0
E0
ENDCHAR

STARTCHAR afii10106
ENCODING 249
SWIDTH 679 0
DWIDTH 13 0
BBX 13 9 -1 0
BITMAP
0380
0580
0980
09F0
1318
1318
1318
A330
C1C0
ENDCHAR

STARTCHAR afii10107
ENCODING 250
SWIDTH 719 0
DWIDTH 14 0
BBX 12 9 1 0
BITMAP
2100
E700
6300
6360
FFB0
C630
C630
C660
C380
ENDCHAR

STARTCHAR afii10108
ENCODING 251
SWIDTH 500 0
DWIDTH 10 0
BBX 9 14 1 0
BITMAP
1000
7000
3000
FE00
3000
6600
6B00
7300
6300
6300
C600
C600
C680
C700
ENDCHAR

STARTCHAR afii10109
ENCODING 252
SWIDTH 498 0
DWIDTH 10 0
BBX 9 12 1 0
BITMAP
0200
0400
0000
2180
E280
6400
6800
7000
CC00
CC00
CD00
C600
ENDCHAR

STARTCHAR section
ENCODING 253
SWIDTH 521 0
DWIDTH 11 0
BBX 10 18 1 -4
BITMAP
0300
0480
0CC0
0C00
0C00
0400
1E00
3300
3300
3300
3300
1E00
0800
0C00
0C00
CC00
4800
3000
ENDCHAR

STARTCHAR afii10110
ENCODING 254
SWIDTH 500 0
DWIDTH 10 0
BBX 10 16 -1 -4
BITMAP
0680
0700
0000
08C0
38C0
1840
1840
1880
0C80
0D00
0E00
0C00
0800
1000
E000
C000
ENDCHAR

STARTCHAR afii10193
ENCODING 255
SWIDTH 500 0
DWIDTH 10 0
BBX 10 12 0 -3
BITMAP
7180
B180
3180
3180
3180
6300
6300
6740
3B80
3000
1800
7000
ENDCHAR
ENDFONT
